<?xml version="1.0" standalone="no"?>
<!DOCTYPE svg PUBLIC "-//W3C//DTD SVG 20010904//EN"
 "http://www.w3.org/TR/2001/REC-SVG-20010904/DTD/svg10.dtd">
<svg version="1.0" xmlns="http://www.w3.org/2000/svg"
 width="339.000000pt" height="144.000000pt" viewBox="0 0 3392.000000 1446.000000"
 preserveAspectRatio="xMidYMid meet">

<g transform="translate(0.000000,1446.000000) scale(0.100000,-0.100000)" fill="none" stroke="blue" stroke-width="1000">
<path d="M4380 12834 c-119 -18 -219 -55 -303 -112 -99 -69 -196 -191 -236
-298 -38 -99 -333 -1218 -338 -1279 -10 -114 34 -231 119 -322 55 -57 106 -90
183 -119 48 -18 159 -19 3300 -24 l3250 -5 62 -22 c161 -59 293 -173 362 -314
36 -73 177 -592 1076 -3949 650 -2426 1046 -3887 1064 -3925 76 -161 208 -279
384 -344 l72 -26 764 -3 c734 -3 767 -2 842 17 43 11 109 35 145 53 83 41 199
148 252 232 22 34 216 413 430 842 280 559 401 792 430 824 159 180 450 185
616 11 29 -31 63 -76 75 -99 12 -23 105 -353 207 -734 102 -380 196 -717 209
-749 56 -138 172 -262 309 -330 141 -69 135 -69 941 -69 594 0 732 3 790 15
149 31 309 139 394 264 21 31 928 1831 2016 4001 1088 2170 1994 3972 2013
4005 74 124 194 222 334 273 l73 27 3395 5 c3206 5 3398 6 3446 23 131 44 245
159 284 284 38 124 35 141 -135 778 -85 319 -166 612 -180 650 -68 187 -236
340 -441 402 -56 17 -255 18 -3819 21 -4161 2 -3855 7 -4003 -63 -98 -47 -170
-102 -231 -179 -60 -76 -73 -102 -1826 -3599 -1253 -2502 -1412 -2813 -1454
-2856 -94 -96 -246 -147 -373 -123 -135 25 -261 119 -313 234 -13 29 -240 863
-505 1853 -265 990 -492 1824 -505 1853 -13 29 -50 80 -81 113 -172 179 -444
180 -619 2 -51 -51 -112 -169 -1017 -1976 -1072 -2139 -996 -2001 -1137 -2070
-63 -30 -72 -32 -181 -32 -105 0 -120 2 -174 28 -107 50 -180 125 -219 225
-10 24 -386 1420 -837 3103 -609 2271 -828 3076 -851 3122 -84 165 -231 287
-415 344 -56 17 -219 18 -3839 19 -2079 1 -3791 0 -3805 -2z"/>
<path d="M7155 8540 c-70 -10 -159 -44 -230 -87 -65 -40 -5079 -4046 -5159
-4122 -62 -59 -125 -157 -159 -246 -43 -114 -395 -1445 -402 -1521 -22 -221
130 -423 350 -463 80 -15 8662 -15 8754 -1 121 20 238 106 304 222 39 67 58
168 48 249 -12 93 -304 1179 -342 1268 -87 207 -284 360 -502 390 -54 8 -620
11 -1799 11 -1235 0 -1740 3 -1787 11 -36 7 -93 25 -126 41 -233 116 -299 430
-133 639 18 23 719 591 1558 1262 839 671 1551 1245 1583 1276 104 100 156
240 137 373 -15 104 -97 398 -131 466 -57 116 -177 209 -302 233 -57 10 -1585
10 -1662 -1z"/>
<path d="M24749 7114 c-88 -16 -154 -51 -220 -117 -49 -48 -75 -93 -246 -428
-308 -604 -674 -1339 -698 -1404 -38 -100 -51 -203 -37 -296 13 -94 600 -2286
635 -2375 69 -173 220 -311 412 -375 l70 -24 3325 0 3325 0 55 23 c114 49 205
140 251 252 18 44 22 75 22 150 1 91 -5 117 -156 675 -86 319 -166 605 -178
635 -32 78 -109 190 -165 239 -65 57 -149 107 -236 139 l-73 27 -2260 5 -2260
5 -70 23 c-202 68 -344 201 -415 389 -16 43 -151 535 -300 1093 -148 558 -282
1047 -297 1085 -77 205 -274 318 -484 279z"/>
</g>
</svg>
